# xmcd
#
# Track frame offsets:
#	150
#	15011
#	26820
#	47589
#	63039
#	72139
#	75130
#	77878
#	80691
#	84338
#	93372
#	95841
#	98656
#	121295
#	132140
#	150474
#	170979
#
# Disc length: 2582 seconds
#
# Revision: 1
# Processed by: cddbd v1.5.2PL0 Copyright (c) Steve Scherf et al.
# Submitted via: audiograbber 1.83.01
#
DISCID=bf0a1411
DTITLE=Solomon Burke - The Last Great Concert CD2
DYEAR=2012
DGENRE=Blues
TTITLE0=Misty Blue
TTITLE1=Got To Get You Off My Mind
TTITLE2=Don't Give Up On Me
TTITLE3=Atta Way To Go
TTITLE4=Proud Mary
TTITLE5=Lucille
TTITLE6=Good Golly Miss Molly
TTITLE7=Tutti Frutti
TTITLE8=Rock This Joint
TTITLE9=Johnny B. Goode
TTITLE10=Shake Rattle and Roll
TTITLE11=Lucille
TTITLE12=I Give My Heart To You
TTITLE13=I Wish I Knew (How It Would Feel To Be Free)
TTITLE14=What A Wonderful World
TTITLE15=Silent Night, Holy Night
TTITLE16=Everybody Needs Somebody To Love
EXTD=
EXTT0=
EXTT1=
EXTT2=
EXTT3=
EXTT4=
EXTT5=
EXTT6=
EXTT7=
EXTT8=
EXTT9=
EXTT10=
EXTT11=
EXTT12=
EXTT13=
EXTT14=
EXTT15=
EXTT16=
PLAYORDER=
